<svg width="80" height="80" viewBox="0 0 80 80" fill="none" xmlns="http://www.w3.org/2000/svg">
<rect width="80" height="80" rx="40" fill="#F59E0B"/>
<path d="M40 20C48.8366 20 56 27.1634 56 36C56 38.7614 55.3729 41.3776 54.2627 43.6953L52.4853 42.6179C53.4818 40.6267 54 38.3678 54 36C54 28.268 47.732 22 40 22C32.268 22 26 28.268 26 36C26 43.732 32.268 50 40 50C42.3678 50 44.6267 49.4818 46.6179 48.4853L47.6953 50.2627C45.3776 51.3729 42.7614 52 40 52C31.1634 52 24 44.8366 24 36C24 27.1634 31.1634 20 40 20ZM48 44L56 52L52 56L44 48V46.8284L43.1716 46H44V44H48ZM40 28C44.4183 28 48 31.5817 48 36C48 40.4183 44.4183 44 40 44C35.5817 44 32 40.4183 32 36C32 31.5817 35.5817 28 40 28ZM40 32C37.7909 32 36 33.7909 36 36C36 38.2091 37.7909 40 40 40C42.2091 40 44 38.2091 44 36C44 33.7909 42.2091 32 40 32Z" fill="white"/>
</svg>
