<svg width="80" height="80" viewBox="0 0 80 80" fill="none" xmlns="http://www.w3.org/2000/svg">
<rect width="80" height="80" rx="40" fill="#3B82F6"/>
<path d="M40 20C48.8366 20 56 27.1634 56 36C56 44.8366 48.8366 52 40 52C31.1634 52 24 44.8366 24 36C24 27.1634 31.1634 20 40 20ZM40 24C33.3726 24 28 29.3726 28 36C28 42.6274 33.3726 48 40 48C46.6274 48 52 42.6274 52 36C52 29.3726 46.6274 24 40 24ZM40 30C42.2091 30 44 31.7909 44 34C44 36.2091 42.2091 38 40 38C37.7909 38 36 36.2091 36 34C36 31.7909 37.7909 30 40 30ZM26 56H54C55.1046 56 56 56.8954 56 58C56 59.1046 55.1046 60 54 60H26C24.8954 60 24 59.1046 24 58C24 56.8954 24.8954 56 26 56Z" fill="white"/>
</svg>
